<mxfile host="app.diagrams.net" modified="2024-06-16T19:00:54.292Z" agent="Mozilla/5.0 (X11; Linux x86_64; rv:127.0) Gecko/20100101 Firefox/127.0" etag="0nd47Z5faI6kUgutvuCm" version="24.5.4" type="device">
  <diagram name="Page-1" id="2YBvvXClWsGukQMizWep">
    <mxGraphModel dx="3570" dy="2360" grid="1" gridSize="10" guides="1" tooltips="1" connect="1" arrows="1" fold="1" page="1" pageScale="1" pageWidth="850" pageHeight="1100" math="0" shadow="0">
      <root>
        <mxCell id="0" />
        <mxCell id="1" parent="0" />
        <mxCell id="aM9ryv3xv72pqoxQDRHE-1" value="StuetzeButton" style="shape=umlLifeline;perimeter=lifelinePerimeter;whiteSpace=wrap;html=1;container=0;dropTarget=0;collapsible=0;recursiveResize=0;outlineConnect=0;portConstraint=eastwest;newEdgeStyle={&quot;edgeStyle&quot;:&quot;elbowEdgeStyle&quot;,&quot;elbow&quot;:&quot;vertical&quot;,&quot;curved&quot;:0,&quot;rounded&quot;:0};" parent="1" vertex="1">
          <mxGeometry x="40" y="40" width="100" height="690" as="geometry" />
        </mxCell>
        <mxCell id="aM9ryv3xv72pqoxQDRHE-2" value="" style="html=1;points=[];perimeter=orthogonalPerimeter;outlineConnect=0;targetShapes=umlLifeline;portConstraint=eastwest;newEdgeStyle={&quot;edgeStyle&quot;:&quot;elbowEdgeStyle&quot;,&quot;elbow&quot;:&quot;vertical&quot;,&quot;curved&quot;:0,&quot;rounded&quot;:0};" parent="aM9ryv3xv72pqoxQDRHE-1" vertex="1">
          <mxGeometry x="45" y="70" width="10" height="570" as="geometry" />
        </mxCell>
        <mxCell id="aM9ryv3xv72pqoxQDRHE-3" value="&lt;div&gt;UserInput&lt;/div&gt;&lt;div&gt;onMouseReleased&lt;/div&gt;" style="html=1;verticalAlign=bottom;startArrow=oval;endArrow=block;startSize=8;edgeStyle=elbowEdgeStyle;elbow=vertical;curved=0;rounded=0;" parent="aM9ryv3xv72pqoxQDRHE-1" target="aM9ryv3xv72pqoxQDRHE-2" edge="1">
          <mxGeometry relative="1" as="geometry">
            <mxPoint x="-15" y="70" as="sourcePoint" />
          </mxGeometry>
        </mxCell>
        <mxCell id="aM9ryv3xv72pqoxQDRHE-5" value="TemplateServiceRepository" style="shape=umlLifeline;perimeter=lifelinePerimeter;whiteSpace=wrap;html=1;container=0;dropTarget=0;collapsible=0;recursiveResize=0;outlineConnect=0;portConstraint=eastwest;newEdgeStyle={&quot;edgeStyle&quot;:&quot;elbowEdgeStyle&quot;,&quot;elbow&quot;:&quot;vertical&quot;,&quot;curved&quot;:0,&quot;rounded&quot;:0};" parent="1" vertex="1">
          <mxGeometry x="220" y="40" width="190" height="690" as="geometry" />
        </mxCell>
        <mxCell id="aM9ryv3xv72pqoxQDRHE-6" value="" style="html=1;points=[];perimeter=orthogonalPerimeter;outlineConnect=0;targetShapes=umlLifeline;portConstraint=eastwest;newEdgeStyle={&quot;edgeStyle&quot;:&quot;elbowEdgeStyle&quot;,&quot;elbow&quot;:&quot;vertical&quot;,&quot;curved&quot;:0,&quot;rounded&quot;:0};" parent="aM9ryv3xv72pqoxQDRHE-5" vertex="1">
          <mxGeometry x="90" y="80" width="10" height="560" as="geometry" />
        </mxCell>
        <mxCell id="aM9ryv3xv72pqoxQDRHE-7" value="createEntity(Template)" style="html=1;verticalAlign=bottom;endArrow=block;edgeStyle=elbowEdgeStyle;elbow=vertical;curved=0;rounded=0;" parent="1" source="aM9ryv3xv72pqoxQDRHE-2" target="aM9ryv3xv72pqoxQDRHE-6" edge="1">
          <mxGeometry relative="1" as="geometry">
            <mxPoint x="195" y="130" as="sourcePoint" />
            <Array as="points">
              <mxPoint x="180" y="120" />
            </Array>
          </mxGeometry>
        </mxCell>
        <mxCell id="aM9ryv3xv72pqoxQDRHE-9" value="StuetzeModel" style="html=1;verticalAlign=bottom;endArrow=block;edgeStyle=elbowEdgeStyle;elbow=vertical;curved=0;rounded=0;dashed=1;" parent="1" source="aM9ryv3xv72pqoxQDRHE-6" target="aM9ryv3xv72pqoxQDRHE-2" edge="1">
          <mxGeometry relative="1" as="geometry">
            <mxPoint x="175" y="160" as="sourcePoint" />
            <Array as="points">
              <mxPoint x="260" y="200" />
              <mxPoint x="280" y="190" />
              <mxPoint x="190" y="160" />
            </Array>
            <mxPoint x="100" y="190" as="targetPoint" />
          </mxGeometry>
        </mxCell>
        <mxCell id="7isBESUQn-XVo2yvIE27-1" value="Template" style="shape=umlLifeline;perimeter=lifelinePerimeter;whiteSpace=wrap;html=1;container=0;dropTarget=0;collapsible=0;recursiveResize=0;outlineConnect=0;portConstraint=eastwest;newEdgeStyle={&quot;edgeStyle&quot;:&quot;elbowEdgeStyle&quot;,&quot;elbow&quot;:&quot;vertical&quot;,&quot;curved&quot;:0,&quot;rounded&quot;:0};" vertex="1" parent="1">
          <mxGeometry x="440" y="40" width="190" height="690" as="geometry" />
        </mxCell>
        <mxCell id="7isBESUQn-XVo2yvIE27-2" value="" style="html=1;points=[];perimeter=orthogonalPerimeter;outlineConnect=0;targetShapes=umlLifeline;portConstraint=eastwest;newEdgeStyle={&quot;edgeStyle&quot;:&quot;elbowEdgeStyle&quot;,&quot;elbow&quot;:&quot;vertical&quot;,&quot;curved&quot;:0,&quot;rounded&quot;:0};" vertex="1" parent="7isBESUQn-XVo2yvIE27-1">
          <mxGeometry x="90" y="80" width="10" height="560" as="geometry" />
        </mxCell>
        <mxCell id="7isBESUQn-XVo2yvIE27-3" value="create()" style="html=1;verticalAlign=bottom;endArrow=block;edgeStyle=elbowEdgeStyle;elbow=vertical;curved=0;rounded=0;" edge="1" parent="1" source="aM9ryv3xv72pqoxQDRHE-6">
          <mxGeometry relative="1" as="geometry">
            <mxPoint x="330" y="140" as="sourcePoint" />
            <Array as="points">
              <mxPoint x="415" y="140" />
            </Array>
            <mxPoint x="530" y="140" as="targetPoint" />
          </mxGeometry>
        </mxCell>
        <mxCell id="7isBESUQn-XVo2yvIE27-4" value="StuetzeModel" style="html=1;verticalAlign=bottom;endArrow=block;edgeStyle=elbowEdgeStyle;elbow=vertical;curved=0;rounded=0;dashed=1;" edge="1" parent="1">
          <mxGeometry relative="1" as="geometry">
            <mxPoint x="530" y="189.57999999999998" as="sourcePoint" />
            <Array as="points">
              <mxPoint x="410" y="189.57999999999998" />
            </Array>
            <mxPoint x="320" y="189.57999999999998" as="targetPoint" />
          </mxGeometry>
        </mxCell>
        <mxCell id="7isBESUQn-XVo2yvIE27-5" value="addEntity(StuetzeModel, posX, posY)" style="html=1;verticalAlign=bottom;endArrow=block;edgeStyle=elbowEdgeStyle;elbow=vertical;curved=0;rounded=0;" edge="1" parent="1" target="7isBESUQn-XVo2yvIE27-7">
          <mxGeometry x="0.7528" relative="1" as="geometry">
            <mxPoint x="100" y="230" as="sourcePoint" />
            <Array as="points">
              <mxPoint x="185" y="230" />
            </Array>
            <mxPoint x="676.6666666666666" y="230" as="targetPoint" />
            <mxPoint as="offset" />
          </mxGeometry>
        </mxCell>
        <mxCell id="7isBESUQn-XVo2yvIE27-6" value="LagerService" style="shape=umlLifeline;perimeter=lifelinePerimeter;whiteSpace=wrap;html=1;container=0;dropTarget=0;collapsible=0;recursiveResize=0;outlineConnect=0;portConstraint=eastwest;newEdgeStyle={&quot;edgeStyle&quot;:&quot;elbowEdgeStyle&quot;,&quot;elbow&quot;:&quot;vertical&quot;,&quot;curved&quot;:0,&quot;rounded&quot;:0};" vertex="1" parent="1">
          <mxGeometry x="900" y="40" width="190" height="700" as="geometry" />
        </mxCell>
        <mxCell id="7isBESUQn-XVo2yvIE27-7" value="" style="html=1;points=[];perimeter=orthogonalPerimeter;outlineConnect=0;targetShapes=umlLifeline;portConstraint=eastwest;newEdgeStyle={&quot;edgeStyle&quot;:&quot;elbowEdgeStyle&quot;,&quot;elbow&quot;:&quot;vertical&quot;,&quot;curved&quot;:0,&quot;rounded&quot;:0};" vertex="1" parent="7isBESUQn-XVo2yvIE27-6">
          <mxGeometry x="90" y="80" width="10" height="590" as="geometry" />
        </mxCell>
        <mxCell id="7isBESUQn-XVo2yvIE27-8" value="LagerValidator" style="shape=umlLifeline;perimeter=lifelinePerimeter;whiteSpace=wrap;html=1;container=0;dropTarget=0;collapsible=0;recursiveResize=0;outlineConnect=0;portConstraint=eastwest;newEdgeStyle={&quot;edgeStyle&quot;:&quot;elbowEdgeStyle&quot;,&quot;elbow&quot;:&quot;vertical&quot;,&quot;curved&quot;:0,&quot;rounded&quot;:0};" vertex="1" parent="1">
          <mxGeometry x="1150" y="40" width="190" height="690" as="geometry" />
        </mxCell>
        <mxCell id="7isBESUQn-XVo2yvIE27-9" value="" style="html=1;points=[];perimeter=orthogonalPerimeter;outlineConnect=0;targetShapes=umlLifeline;portConstraint=eastwest;newEdgeStyle={&quot;edgeStyle&quot;:&quot;elbowEdgeStyle&quot;,&quot;elbow&quot;:&quot;vertical&quot;,&quot;curved&quot;:0,&quot;rounded&quot;:0};" vertex="1" parent="7isBESUQn-XVo2yvIE27-8">
          <mxGeometry x="90" y="80" width="10" height="590" as="geometry" />
        </mxCell>
        <mxCell id="7isBESUQn-XVo2yvIE27-10" value="isValidStuetze(StuetzeModel, posX, posY)" style="html=1;verticalAlign=bottom;endArrow=block;edgeStyle=elbowEdgeStyle;elbow=vertical;curved=0;rounded=0;" edge="1" parent="1" target="7isBESUQn-XVo2yvIE27-9">
          <mxGeometry relative="1" as="geometry">
            <mxPoint x="1000" y="250" as="sourcePoint" />
            <Array as="points">
              <mxPoint x="1085" y="250" />
            </Array>
            <mxPoint x="1660" y="250" as="targetPoint" />
            <mxPoint as="offset" />
          </mxGeometry>
        </mxCell>
        <mxCell id="7isBESUQn-XVo2yvIE27-11" value="StuetzeModel" style="shape=umlLifeline;perimeter=lifelinePerimeter;whiteSpace=wrap;html=1;container=0;dropTarget=0;collapsible=0;recursiveResize=0;outlineConnect=0;portConstraint=eastwest;newEdgeStyle={&quot;edgeStyle&quot;:&quot;elbowEdgeStyle&quot;,&quot;elbow&quot;:&quot;vertical&quot;,&quot;curved&quot;:0,&quot;rounded&quot;:0};" vertex="1" parent="1">
          <mxGeometry x="660" y="40" width="190" height="690" as="geometry" />
        </mxCell>
        <mxCell id="7isBESUQn-XVo2yvIE27-12" value="" style="html=1;points=[];perimeter=orthogonalPerimeter;outlineConnect=0;targetShapes=umlLifeline;portConstraint=eastwest;newEdgeStyle={&quot;edgeStyle&quot;:&quot;elbowEdgeStyle&quot;,&quot;elbow&quot;:&quot;vertical&quot;,&quot;curved&quot;:0,&quot;rounded&quot;:0};" vertex="1" parent="7isBESUQn-XVo2yvIE27-11">
          <mxGeometry x="90" y="110" width="10" height="540" as="geometry" />
        </mxCell>
        <mxCell id="7isBESUQn-XVo2yvIE27-13" value="StuetzeModel()" style="html=1;verticalAlign=bottom;endArrow=block;edgeStyle=elbowEdgeStyle;elbow=vertical;curved=0;rounded=0;" edge="1" parent="1">
          <mxGeometry relative="1" as="geometry">
            <mxPoint x="540" y="150" as="sourcePoint" />
            <Array as="points">
              <mxPoint x="635" y="150" />
            </Array>
            <mxPoint x="750" y="150" as="targetPoint" />
          </mxGeometry>
        </mxCell>
        <mxCell id="7isBESUQn-XVo2yvIE27-14" value="StuetzeModel" style="html=1;verticalAlign=bottom;endArrow=block;edgeStyle=elbowEdgeStyle;elbow=vertical;curved=0;rounded=0;dashed=1;" edge="1" parent="1">
          <mxGeometry relative="1" as="geometry">
            <mxPoint x="750" y="180" as="sourcePoint" />
            <Array as="points">
              <mxPoint x="630" y="180" />
            </Array>
            <mxPoint x="540" y="180" as="targetPoint" />
          </mxGeometry>
        </mxCell>
        <mxCell id="7isBESUQn-XVo2yvIE27-15" value="return true" style="html=1;verticalAlign=bottom;endArrow=block;edgeStyle=elbowEdgeStyle;elbow=vertical;curved=0;rounded=0;dashed=1;" edge="1" parent="1" target="7isBESUQn-XVo2yvIE27-7">
          <mxGeometry relative="1" as="geometry">
            <mxPoint x="1240" y="280" as="sourcePoint" />
            <Array as="points">
              <mxPoint x="1120" y="280" />
            </Array>
            <mxPoint x="1030" y="280" as="targetPoint" />
          </mxGeometry>
        </mxCell>
        <mxCell id="7isBESUQn-XVo2yvIE27-16" value="addStuetze(StuetzeModel, posX, posY)" style="html=1;verticalAlign=bottom;endArrow=block;edgeStyle=elbowEdgeStyle;elbow=vertical;curved=0;rounded=0;" edge="1" parent="1" target="7isBESUQn-XVo2yvIE27-18">
          <mxGeometry relative="1" as="geometry">
            <mxPoint x="1000" y="339.26" as="sourcePoint" />
            <Array as="points">
              <mxPoint x="1085" y="339.26" />
            </Array>
            <mxPoint x="1380" y="340" as="targetPoint" />
            <mxPoint as="offset" />
          </mxGeometry>
        </mxCell>
        <mxCell id="7isBESUQn-XVo2yvIE27-17" value="RegalServiceRepository" style="shape=umlLifeline;perimeter=lifelinePerimeter;whiteSpace=wrap;html=1;container=0;dropTarget=0;collapsible=0;recursiveResize=0;outlineConnect=0;portConstraint=eastwest;newEdgeStyle={&quot;edgeStyle&quot;:&quot;elbowEdgeStyle&quot;,&quot;elbow&quot;:&quot;vertical&quot;,&quot;curved&quot;:0,&quot;rounded&quot;:0};" vertex="1" parent="1">
          <mxGeometry x="1390" y="40" width="190" height="690" as="geometry" />
        </mxCell>
        <mxCell id="7isBESUQn-XVo2yvIE27-18" value="" style="html=1;points=[];perimeter=orthogonalPerimeter;outlineConnect=0;targetShapes=umlLifeline;portConstraint=eastwest;newEdgeStyle={&quot;edgeStyle&quot;:&quot;elbowEdgeStyle&quot;,&quot;elbow&quot;:&quot;vertical&quot;,&quot;curved&quot;:0,&quot;rounded&quot;:0};" vertex="1" parent="7isBESUQn-XVo2yvIE27-17">
          <mxGeometry x="90" y="80" width="10" height="600" as="geometry" />
        </mxCell>
        <mxCell id="7isBESUQn-XVo2yvIE27-19" value="RegalTeilServiceRepository" style="shape=umlLifeline;perimeter=lifelinePerimeter;whiteSpace=wrap;html=1;container=0;dropTarget=0;collapsible=0;recursiveResize=0;outlineConnect=0;portConstraint=eastwest;newEdgeStyle={&quot;edgeStyle&quot;:&quot;elbowEdgeStyle&quot;,&quot;elbow&quot;:&quot;vertical&quot;,&quot;curved&quot;:0,&quot;rounded&quot;:0};" vertex="1" parent="1">
          <mxGeometry x="1620" y="40" width="190" height="690" as="geometry" />
        </mxCell>
        <mxCell id="7isBESUQn-XVo2yvIE27-20" value="" style="html=1;points=[];perimeter=orthogonalPerimeter;outlineConnect=0;targetShapes=umlLifeline;portConstraint=eastwest;newEdgeStyle={&quot;edgeStyle&quot;:&quot;elbowEdgeStyle&quot;,&quot;elbow&quot;:&quot;vertical&quot;,&quot;curved&quot;:0,&quot;rounded&quot;:0};" vertex="1" parent="7isBESUQn-XVo2yvIE27-19">
          <mxGeometry x="90" y="80" width="10" height="600" as="geometry" />
        </mxCell>
        <mxCell id="7isBESUQn-XVo2yvIE27-21" value="addStuetze(StuetzeModel, posX, posY)" style="html=1;verticalAlign=bottom;endArrow=block;edgeStyle=elbowEdgeStyle;elbow=vertical;curved=0;rounded=0;" edge="1" parent="1" target="7isBESUQn-XVo2yvIE27-20">
          <mxGeometry relative="1" as="geometry">
            <mxPoint x="1490" y="350.26" as="sourcePoint" />
            <Array as="points">
              <mxPoint x="1575" y="350.26" />
            </Array>
            <mxPoint x="1970" y="350" as="targetPoint" />
            <mxPoint as="offset" />
          </mxGeometry>
        </mxCell>
        <mxCell id="7isBESUQn-XVo2yvIE27-22" value="return" style="html=1;verticalAlign=bottom;endArrow=block;edgeStyle=elbowEdgeStyle;elbow=horizontal;curved=0;rounded=0;dashed=1;" edge="1" parent="1">
          <mxGeometry relative="1" as="geometry">
            <mxPoint x="1710" y="380" as="sourcePoint" />
            <Array as="points">
              <mxPoint x="1610" y="380" />
            </Array>
            <mxPoint x="1490" y="380" as="targetPoint" />
          </mxGeometry>
        </mxCell>
        <mxCell id="7isBESUQn-XVo2yvIE27-23" value="return" style="html=1;verticalAlign=bottom;endArrow=block;edgeStyle=elbowEdgeStyle;elbow=horizontal;curved=0;rounded=0;dashed=1;" edge="1" parent="1" target="7isBESUQn-XVo2yvIE27-7">
          <mxGeometry relative="1" as="geometry">
            <mxPoint x="1480" y="400" as="sourcePoint" />
            <Array as="points">
              <mxPoint x="1380" y="400" />
            </Array>
            <mxPoint x="1260" y="400" as="targetPoint" />
          </mxGeometry>
        </mxCell>
        <mxCell id="7isBESUQn-XVo2yvIE27-24" value="PropertyChangeSupport" style="shape=umlLifeline;perimeter=lifelinePerimeter;whiteSpace=wrap;html=1;container=0;dropTarget=0;collapsible=0;recursiveResize=0;outlineConnect=0;portConstraint=eastwest;newEdgeStyle={&quot;edgeStyle&quot;:&quot;elbowEdgeStyle&quot;,&quot;elbow&quot;:&quot;vertical&quot;,&quot;curved&quot;:0,&quot;rounded&quot;:0};" vertex="1" parent="1">
          <mxGeometry x="1850" y="40" width="190" height="690" as="geometry" />
        </mxCell>
        <mxCell id="7isBESUQn-XVo2yvIE27-25" value="" style="html=1;points=[];perimeter=orthogonalPerimeter;outlineConnect=0;targetShapes=umlLifeline;portConstraint=eastwest;newEdgeStyle={&quot;edgeStyle&quot;:&quot;elbowEdgeStyle&quot;,&quot;elbow&quot;:&quot;vertical&quot;,&quot;curved&quot;:0,&quot;rounded&quot;:0};" vertex="1" parent="7isBESUQn-XVo2yvIE27-24">
          <mxGeometry x="90" y="80" width="10" height="600" as="geometry" />
        </mxCell>
        <mxCell id="7isBESUQn-XVo2yvIE27-26" value="firePropertyChange(&quot;new Stuetze&quot;, StuetzeModel)" style="html=1;verticalAlign=bottom;endArrow=block;edgeStyle=elbowEdgeStyle;elbow=vertical;curved=0;rounded=0;" edge="1" parent="1">
          <mxGeometry x="0.7229" relative="1" as="geometry">
            <mxPoint x="1000" y="470.26" as="sourcePoint" />
            <Array as="points">
              <mxPoint x="1085" y="470.26" />
            </Array>
            <mxPoint x="1940" y="470" as="targetPoint" />
            <mxPoint x="1" as="offset" />
          </mxGeometry>
        </mxCell>
        <mxCell id="7isBESUQn-XVo2yvIE27-27" value="LagerViewController" style="shape=umlLifeline;perimeter=lifelinePerimeter;whiteSpace=wrap;html=1;container=0;dropTarget=0;collapsible=0;recursiveResize=0;outlineConnect=0;portConstraint=eastwest;newEdgeStyle={&quot;edgeStyle&quot;:&quot;elbowEdgeStyle&quot;,&quot;elbow&quot;:&quot;vertical&quot;,&quot;curved&quot;:0,&quot;rounded&quot;:0};" vertex="1" parent="1">
          <mxGeometry x="2080" y="40" width="190" height="700" as="geometry" />
        </mxCell>
        <mxCell id="7isBESUQn-XVo2yvIE27-28" value="" style="html=1;points=[];perimeter=orthogonalPerimeter;outlineConnect=0;targetShapes=umlLifeline;portConstraint=eastwest;newEdgeStyle={&quot;edgeStyle&quot;:&quot;elbowEdgeStyle&quot;,&quot;elbow&quot;:&quot;vertical&quot;,&quot;curved&quot;:0,&quot;rounded&quot;:0};" vertex="1" parent="7isBESUQn-XVo2yvIE27-27">
          <mxGeometry x="90" y="80" width="10" height="600" as="geometry" />
        </mxCell>
        <mxCell id="7isBESUQn-XVo2yvIE27-29" value="listen" style="html=1;verticalAlign=bottom;endArrow=block;edgeStyle=elbowEdgeStyle;elbow=vertical;curved=0;rounded=0;" edge="1" parent="1" target="7isBESUQn-XVo2yvIE27-28">
          <mxGeometry x="0.0001" relative="1" as="geometry">
            <mxPoint x="1950" y="480.26" as="sourcePoint" />
            <Array as="points" />
            <mxPoint x="2890" y="480" as="targetPoint" />
            <mxPoint as="offset" />
          </mxGeometry>
        </mxCell>
        <mxCell id="7isBESUQn-XVo2yvIE27-30" value="LagerView" style="shape=umlLifeline;perimeter=lifelinePerimeter;whiteSpace=wrap;html=1;container=0;dropTarget=0;collapsible=0;recursiveResize=0;outlineConnect=0;portConstraint=eastwest;newEdgeStyle={&quot;edgeStyle&quot;:&quot;elbowEdgeStyle&quot;,&quot;elbow&quot;:&quot;vertical&quot;,&quot;curved&quot;:0,&quot;rounded&quot;:0};" vertex="1" parent="1">
          <mxGeometry x="2570" y="40" width="190" height="730" as="geometry" />
        </mxCell>
        <mxCell id="7isBESUQn-XVo2yvIE27-31" value="" style="html=1;points=[];perimeter=orthogonalPerimeter;outlineConnect=0;targetShapes=umlLifeline;portConstraint=eastwest;newEdgeStyle={&quot;edgeStyle&quot;:&quot;elbowEdgeStyle&quot;,&quot;elbow&quot;:&quot;vertical&quot;,&quot;curved&quot;:0,&quot;rounded&quot;:0};" vertex="1" parent="7isBESUQn-XVo2yvIE27-30">
          <mxGeometry x="90" y="80" width="10" height="600" as="geometry" />
        </mxCell>
        <mxCell id="7isBESUQn-XVo2yvIE27-32" value="new StuetzeComponent(StuetzeModel)" style="html=1;verticalAlign=bottom;endArrow=block;edgeStyle=elbowEdgeStyle;elbow=vertical;curved=0;rounded=0;" edge="1" parent="1">
          <mxGeometry x="0.0001" relative="1" as="geometry">
            <mxPoint x="2180" y="490.26" as="sourcePoint" />
            <Array as="points" />
            <mxPoint x="2400" y="490" as="targetPoint" />
            <mxPoint as="offset" />
          </mxGeometry>
        </mxCell>
        <mxCell id="7isBESUQn-XVo2yvIE27-33" value="StuetzeComponent" style="shape=umlLifeline;perimeter=lifelinePerimeter;whiteSpace=wrap;html=1;container=0;dropTarget=0;collapsible=0;recursiveResize=0;outlineConnect=0;portConstraint=eastwest;newEdgeStyle={&quot;edgeStyle&quot;:&quot;elbowEdgeStyle&quot;,&quot;elbow&quot;:&quot;vertical&quot;,&quot;curved&quot;:0,&quot;rounded&quot;:0};" vertex="1" parent="1">
          <mxGeometry x="2310" y="40" width="190" height="700" as="geometry" />
        </mxCell>
        <mxCell id="7isBESUQn-XVo2yvIE27-34" value="" style="html=1;points=[];perimeter=orthogonalPerimeter;outlineConnect=0;targetShapes=umlLifeline;portConstraint=eastwest;newEdgeStyle={&quot;edgeStyle&quot;:&quot;elbowEdgeStyle&quot;,&quot;elbow&quot;:&quot;vertical&quot;,&quot;curved&quot;:0,&quot;rounded&quot;:0};" vertex="1" parent="7isBESUQn-XVo2yvIE27-33">
          <mxGeometry x="90" y="450" width="10" height="230" as="geometry" />
        </mxCell>
        <mxCell id="7isBESUQn-XVo2yvIE27-35" value="return" style="html=1;verticalAlign=bottom;endArrow=block;edgeStyle=elbowEdgeStyle;elbow=horizontal;curved=0;rounded=0;dashed=1;" edge="1" parent="1">
          <mxGeometry relative="1" as="geometry">
            <mxPoint x="2400" y="520" as="sourcePoint" />
            <Array as="points">
              <mxPoint x="2300" y="520" />
            </Array>
            <mxPoint x="2180" y="520" as="targetPoint" />
          </mxGeometry>
        </mxCell>
        <mxCell id="7isBESUQn-XVo2yvIE27-36" value="addComponent(StuetzeComponent)" style="html=1;verticalAlign=bottom;endArrow=block;edgeStyle=elbowEdgeStyle;elbow=vertical;curved=0;rounded=0;" edge="1" parent="1" target="7isBESUQn-XVo2yvIE27-30">
          <mxGeometry x="0.0001" relative="1" as="geometry">
            <mxPoint x="2180" y="560.26" as="sourcePoint" />
            <Array as="points" />
            <mxPoint x="2400" y="560" as="targetPoint" />
            <mxPoint as="offset" />
          </mxGeometry>
        </mxCell>
        <mxCell id="7isBESUQn-XVo2yvIE27-37" value="return" style="html=1;verticalAlign=bottom;endArrow=block;edgeStyle=elbowEdgeStyle;elbow=horizontal;curved=0;rounded=0;dashed=1;" edge="1" parent="1" target="7isBESUQn-XVo2yvIE27-27">
          <mxGeometry relative="1" as="geometry">
            <mxPoint x="2660" y="600" as="sourcePoint" />
            <Array as="points">
              <mxPoint x="2560" y="600" />
            </Array>
            <mxPoint x="2440" y="600" as="targetPoint" />
          </mxGeometry>
        </mxCell>
        <mxCell id="7isBESUQn-XVo2yvIE27-39" value="return" style="html=1;verticalAlign=bottom;endArrow=block;edgeStyle=elbowEdgeStyle;elbow=horizontal;curved=0;rounded=0;dashed=1;" edge="1" parent="1">
          <mxGeometry relative="1" as="geometry">
            <mxPoint x="2170" y="620" as="sourcePoint" />
            <Array as="points">
              <mxPoint x="2070" y="620" />
            </Array>
            <mxPoint x="1950" y="620" as="targetPoint" />
          </mxGeometry>
        </mxCell>
        <mxCell id="7isBESUQn-XVo2yvIE27-40" value="return" style="html=1;verticalAlign=bottom;endArrow=block;edgeStyle=elbowEdgeStyle;elbow=horizontal;curved=0;rounded=0;dashed=1;" edge="1" parent="1" target="7isBESUQn-XVo2yvIE27-6">
          <mxGeometry relative="1" as="geometry">
            <mxPoint x="1940" y="640" as="sourcePoint" />
            <Array as="points">
              <mxPoint x="1840" y="640" />
            </Array>
            <mxPoint x="1720" y="640" as="targetPoint" />
          </mxGeometry>
        </mxCell>
        <mxCell id="7isBESUQn-XVo2yvIE27-41" value="return" style="html=1;verticalAlign=bottom;endArrow=block;edgeStyle=elbowEdgeStyle;elbow=horizontal;curved=0;rounded=0;dashed=1;" edge="1" parent="1" target="aM9ryv3xv72pqoxQDRHE-2">
          <mxGeometry x="0.2489" y="-10" relative="1" as="geometry">
            <mxPoint x="987" y="670" as="sourcePoint" />
            <Array as="points">
              <mxPoint x="887" y="670" />
            </Array>
            <mxPoint x="100" y="670" as="targetPoint" />
            <mxPoint as="offset" />
          </mxGeometry>
        </mxCell>
      </root>
    </mxGraphModel>
  </diagram>
</mxfile>
